<svg width="24" height="24" viewBox="0 0 24 24" fill="none" xmlns="http://www.w3.org/2000/svg">
<path d="M4.28516 14.5713C4.99231 14.5713 5.57129 15.1503 5.57129 15.8574V18.4287H8.14258C8.84973 18.4287 9.42871 19.0077 9.42871 19.7148C9.42849 20.4218 8.84959 21 8.14258 21H4.28516C3.57832 20.9998 3.00022 20.4217 3 19.7148V15.8574C3 15.1504 3.57818 14.5715 4.28516 14.5713ZM19.7139 14.5713C20.421 14.5713 21 15.1503 21 15.8574V19.7148C20.9998 20.4218 20.4209 21 19.7139 21H15.8574C15.1504 21 14.5715 20.4218 14.5713 19.7148C14.5713 19.0077 15.1503 18.4287 15.8574 18.4287H18.4287V15.8574C18.4287 15.1504 19.0069 14.5715 19.7139 14.5713ZM8.14258 3C8.84957 3 9.42845 3.57822 9.42871 4.28516C9.42871 4.99231 8.84973 5.57129 8.14258 5.57129H5.57129V8.14258C5.57129 8.84973 4.99231 9.42871 4.28516 9.42871C3.57815 9.42853 3 8.84962 3 8.14258V4.28516C3.00026 3.57833 3.57831 3.00018 4.28516 3H8.14258ZM19.7139 3C20.421 3 21 3.57898 21 4.28613V8.14258C21 8.84973 20.421 9.42871 19.7139 9.42871C19.0069 9.4285 18.4287 8.8496 18.4287 8.14258V5.57129H15.8574C15.1504 5.57129 14.5715 4.9931 14.5713 4.28613C14.5713 3.57898 15.1503 3 15.8574 3H19.7139Z" fill="#363D47"/>
</svg>
